:SAMPLES-PER-SECOND 30
:FRAME-RANGE 1-2643
:FULLY-SPECIFIED
:DEGREES
2561
root  -23.765 36.203 -35.2776 10.998 -32.8798 -8.875
RightUpLeg  -38.9858 9.88544 -1.43274
RightLeg  29.1345 0.414605 0.0210443
RightFoot  -5.98872 -0.904686 18.3292
RightToes  5.38607e-012 1.2921e-014 -6.02303e-014
Spine  2.73745 -7.17758 4.98259
Spine1  6.38232 -7.90984 2.82942
HEad  10.5072 36.1979 -16.5469
LeftShoulder1  1.97863 -3.79667 -21.7712
LeftArm  -6.62346 -3.30923 -55.1097
LeftForeArm  33.3075 -0.438111 -10.7906
LeftHand  -0.0620681 4.6038 6.35659
RightShoulder  0.881533 -0.589589 26.2728
RightArm  -29.6168 -12.8738 48.713
RightForeArm  70.3094 -5.05857 2.11509
RightHand  0.169208 -6.73976 -16.0116
LeftUpLeg  7.24287 -2.96141 -6.83487
LeftLeg  37.671 -5.90344 -4.49348
LeftFoot  -10.2316 0.00583424 5.75344
LeftToes  -4.79707e-012 -5.93756e-011 -7.55542e-012
2562
root  -24.6093 36.0789 -33.702 10.5837 -31.7698 -9.30225
RightUpLeg  -38.4112 7.11816 0.284383
RightLeg  34.9652 2.40692 1.55939
RightFoot  -6.0029 -0.689299 13.8419
RightToes  5.38607e-012 1.2921e-014 -6.02303e-014
Spine  3.0126 -6.483 6.01459
Spine1  6.94327 -7.34083 3.1994
HEad  9.78982 35.9828 -16.5491
LeftShoulder1  1.98119 -3.83235 -21.6614
LeftArm  -7.81977 -1.71223 -56.6461
LeftForeArm  34.981 4.74097 -10.4618
LeftHand  -0.0245479 5.36933 5.2886
RightShoulder  1.229 0.561473 25.6624
RightArm  -29.9406 -9.87009 48.0934
RightForeArm  70.4379 -4.96735 1.60409
RightHand  0.149335 -6.5722 -16.264
LeftUpLeg  2.67293 1.64217 -3.73958
LeftLeg  49.0458 -6.84944 -7.94607
LeftFoot  0.997656 0.161687 -1.55201
LeftToes  -4.79707e-012 -5.93756e-011 -7.55542e-012
2563
root  -25.2703 36.0796 -32.3661 10.074 -29.7747 -9.3349
RightUpLeg  -36.9976 4.56682 1.16788
RightLeg  38.592 2.49904 1.86744
RightFoot  -7.90828 -0.350431 9.87101
RightToes  5.38607e-012 1.2921e-014 -6.02303e-014
Spine  3.16012 -5.55401 7.30429
Spine1  7.98185 -6.48088 3.80904
HEad  11.7914 35.8431 -14.149
LeftShoulder1  1.88408 -3.51145 -21.5344
LeftArm  -7.69941 -0.544364 -57.7325
LeftForeArm  37.2164 7.45593 -10.787
LeftHand  0.00316338 6.2807 4.20956
RightShoulder  1.30207 0.747583 26.0347
RightArm  -31.3427 -5.52104 47.165
RightForeArm  73.0741 -4.6206 0.178504
RightHand  0.212182 -7.026 -16.2703
LeftUpLeg  -4.05704 3.48738 -1.89324
LeftLeg  59.5872 -4.19215 -7.12629
LeftFoot  11.6251 1.69682 -8.69215
LeftToes  -4.79707e-012 -5.93756e-011 -7.55542e-012
2564
root  -25.9432 36.4006 -30.939 9.46265 -27.6516 -9.95093
RightUpLeg  -32.9094 3.63535 1.98158
RightLeg  38.566 1.77465 1.24478
RightFoot  -10.5444 -0.137539 9.43337
RightToes  5.38607e-012 1.2921e-014 -6.02303e-014
Spine  3.78454 -4.45272 9.5789
Spine1  7.69109 -5.00514 2.94881
HEad  14.8741 36.1833 -11.552
LeftShoulder1  1.72704 -2.88351 -21.8155
LeftArm  -7.26786 1.44679 -57.6359
LeftForeArm  39.7059 7.46562 -11.1601
LeftHand  -0.0114845 6.3105 2.50658
RightShoulder  1.42805 1.09664 26.3832
RightArm  -31.3604 -2.07769 46.1654
RightForeArm  73.475 -4.54332 -0.179143
RightHand  0.335333 -7.85193 -16.6512
LeftUpLeg  -10.3382 5.55667 0.0324452
LeftLeg  67.8191 -0.3934 -0.283875
LeftFoot  6.68049 0.888457 -5.85668
LeftToes  -4.79707e-012 -5.93756e-011 -7.55542e-012
2565
root  -26.5061 36.931 -29.5174 8.36792 -24.6021 -8.76544
RightUpLeg  -28.3359 2.70461 0.938648
RightLeg  36.8122 0.23055 -0.0821373
RightFoot  -12.4422 0.00984838 9.81696
RightToes  5.38607e-012 1.2921e-014 -6.02303e-014
Spine  4.15157 -3.53683 9.83327
Spine1  7.3432 -3.94282 2.68801
HEad  17.035 36.2772 -9.80312
LeftShoulder1  1.60643 -2.45073 -21.8163
LeftArm  -7.02204 3.54758 -57.3451
LeftForeArm  40.4729 7.46169 -11.237
LeftHand  -0.0205623 6.10762 1.72954
RightShoulder  1.43037 1.06994 26.6445
RightArm  -31.2404 0.687151 45.5385
RightForeArm  72.4171 -4.57066 -0.267806
RightHand  0.379519 -7.99479 -17.6329
LeftUpLeg  -17.378 5.69855 -0.67352
LeftLeg  71.3245 1.38399 5.5352
LeftFoot  3.24284 0.0990988 -0.928263
LeftToes  -4.79707e-012 -5.93756e-011 -7.55542e-012
2566
root  -26.9824 37.5632 -28.0541 7.55225 -21.1288 -7.28046
RightUpLeg  -23.2368 0.965542 -0.371697
RightLeg  33.4234 -1.21466 -1.11972
RightFoot  -13.3888 0.095071 10.3935
RightToes  5.38607e-012 1.2921e-014 -6.02303e-014
Spine  4.23658 -2.58269 10.0734
Spine1  6.75055 -2.81605 2.2243
HEad  18.6609 35.2907 -8.10307
LeftShoulder1  1.52174 -2.2086 -21.4844
LeftArm  -6.88469 5.15945 -57.0907
LeftForeArm  40.097 7.48094 -11.31
LeftHand  -0.0247551 5.59471 2.00211
RightShoulder  1.50205 1.31556 26.4613
RightArm  -29.2633 2.41762 44.2169
RightForeArm  68.6402 -4.93972 1.03056
RightHand  0.280137 -7.31678 -17.7893
LeftUpLeg  -23.8623 4.61947 -2.16158
LeftLeg  69.8141 1.80364 6.3147
LeftFoot  0.841549 -0.244686 2.24514
LeftToes  -4.79707e-012 -5.93756e-011 -7.55542e-012
2567
root  -27.4218 38.1628 -26.5169 7.04492 -18.5548 -5.90186
RightUpLeg  -17.8469 -0.749843 -1.67836
RightLeg  28.9584 -2.02362 -1.45482
RightFoot  -13.7864 0.141259 10.9863
RightToes  5.38607e-012 1.2921e-014 -6.02303e-014
Spine  4.39849 -1.44643 10.2944
Spine1  5.62774 -1.41167 1.0947
HEad  20.6643 33.9442 -6.0724
LeftShoulder1  1.33648 -1.60226 -21.0914
LeftArm  -6.90905 6.98212 -56.5812
LeftForeArm  38.704 6.9687 -11.3085
LeftHand  -0.0274527 5.34967 2.36796
RightShoulder  1.60284 1.69507 26.0052
RightArm  -26.7492 3.49585 42.6171
RightForeArm  64.4975 -5.36877 2.65902
RightHand  0.151296 -6.50013 -17.3571
LeftUpLeg  -28.6818 4.41016 -3.66621
LeftLeg  63.8003 1.39442 3.74838
LeftFoot  -1.9248 -0.22077 2.82149
LeftToes  -4.79707e-012 -5.93756e-011 -7.55542e-012
2568
root  -27.8297 38.6158 -24.9403 6.95801 -16.7178 -5.14166
RightUpLeg  -12.931 -3.17218 -2.58226
RightLeg  24.7643 -1.34952 -0.911711
RightFoot  -13.7474 0.147356 11.4397
RightToes  5.38607e-012 1.2921e-014 -6.02303e-014
Spine  4.31897 -0.285205 10.9298
Spine1  4.69463 0.0485709 -0.513411
HEad  22.5379 32.5386 -4.08791
LeftShoulder1  1.13211 -0.905667 -20.7153
LeftArm  -6.98246 8.55163 -55.6372
LeftForeArm  36.8565 6.11705 -11.2988
LeftHand  -0.0364603 4.83923 2.68974
RightShoulder  1.70023 2.09985 25.3924
RightArm  -24.1131 4.83691 40.9594
RightForeArm  60.9778 -5.75419 4.22577
RightHand  0.060042 -5.89568 -17.0207
LeftUpLeg  -31.8737 5.15772 -4.84458
LeftLeg  54.3144 1.40644 2.59565
LeftFoot  -5.02339 -0.127032 2.85012
LeftToes  -4.79707e-012 -5.93756e-011 -7.55542e-012
2569
root  -28.2146 38.8554 -23.3585 7.02197 -14.8729 -4.97327
RightUpLeg  -8.58142 -6.70106 -3.16857
RightLeg  21.7598 0.50949 0.0370257
RightFoot  -13.8322 0.165656 11.9137
RightToes  5.38607e-012 1.2921e-014 -6.02303e-014
Spine  2.93106 0.563162 11.6054
Spine1  5.86507 1.01753 -1.89415
HEad  22.5409 31.6349 -3.35704
LeftShoulder1  0.959301 -0.302973 -20.3921
LeftArm  -7.47765 8.9872 -54.7464
LeftForeArm  35.5207 5.7642 -11.066
LeftHand  -0.0425156 4.58153 2.92162
RightShoulder  1.81998 2.7018 24.1915
RightArm  -22.3515 7.526 40.0368
RightForeArm  58.9264 -5.97585 5.14877
RightHand  0.0131959 -5.57183 -17.0362
LeftUpLeg  -33.4147 6.38017 -5.68695
LeftLeg  41.8514 2.97311 3.23599
LeftFoot  -5.25198 -0.13066 3.05129
LeftToes  -4.79707e-012 -5.93756e-011 -7.55542e-012
2570
root  -28.5589 38.8838 -21.764 6.93115 -13.3391 -4.94501
RightUpLeg  -4.2867 -8.79915 -3.94382
RightLeg  19.4227 1.6052 0.752736
RightFoot  -14.4774 0.238436 12.2696
RightToes  5.38607e-012 1.2921e-014 -6.02303e-014
Spine  2.38881 1.10448 11.5635
Spine1  6.11252 1.61062 -2.67903
HEad  21.8982 31.5618 -3.47321
LeftShoulder1  0.902359 -0.0782056 -20.4799
LeftArm  -7.52435 9.76811 -53.2813
LeftForeArm  34.423 5.58568 -11.0102
LeftHand  -0.0430418 4.59266 3.04843
RightShoulder  1.87249 3.11437 23.0063
RightArm  -21.5307 10.7012 39.2421
RightForeArm  58.3686 -6.05585 5.5236
RightHand  -0.00942343 -5.41351 -17.303
LeftUpLeg  -33.249 7.41725 -6.38314
LeftLeg  27.2113 7.03709 4.24688
LeftFoot  -2.32197 -0.277426 3.69428
LeftToes  -4.79707e-012 -5.93756e-011 -7.55542e-012
2571
root  -28.8551 38.7126 -20.0935 6.70679 -12.1248 -5.24548
RightUpLeg  0.0770229 -9.28814 -4.37207
RightLeg  17.5856 1.39515 1.00359
RightFoot  -15.6548 0.381486 12.9114
RightToes  5.38607e-012 1.2921e-014 -6.02303e-014
Spine  1.26549 1.34964 11.3117
Spine1  7.19601 1.83091 -3.01496
HEad  20.8869 32.2123 -3.8461
LeftShoulder1  0.968681 -0.324843 -20.4974
LeftArm  -7.53199 10.6902 -51.8998
LeftForeArm  33.3744 5.79499 -10.9878
LeftHand  -0.041933 4.65268 3.07911
RightShoulder  1.9268 3.6007 21.667
RightArm  -21.5607 14.4608 39.164
RightForeArm  58.1505 -6.04525 5.41556
RightHand  -0.00442932 -5.44319 -17.7336
LeftUpLeg  -31.8663 4.46162 -4.69255
LeftLeg  13.5376 15.4455 4.06312
LeftFoot  -1.42765 -0.299492 3.55183
LeftToes  -4.79707e-012 -5.93756e-011 -7.55542e-012
2572
root  -29.0846 38.3794 -18.3407 6.14917 -10.8818 -5.8006
RightUpLeg  4.59951 -8.81422 -4.35214
RightLeg  16.4434 0.505053 0.763304
RightFoot  -17.1327 0.608776 14.2763
RightToes  5.38607e-012 1.2921e-014 -6.02303e-014
Spine  0.453112 1.20073 11.1099
Spine1  7.88376 1.72895 -3.33424
HEad  20.9409 33.1672 -3.51725
LeftShoulder1  1.02336 -0.53416 -20.4658
LeftArm  -7.17847 11.2508 -50.5204
LeftForeArm  33.2595 7.14172 -11.1171
LeftHand  -0.0429384 4.60072 3.06003
RightShoulder  1.93499 3.84494 20.7738
RightArm  -21.7817 17.9671 39.3924
RightForeArm  57.9871 -6.013 5.18699
RightHand  0.00287875 -5.48728 -18.0834
LeftUpLeg  -30.5952 -0.654328 -1.1915
LeftLeg  4.10996 21.8305 1.69217
LeftFoot  -2.4373 -0.309651 4.16458
LeftToes  -4.79707e-012 -5.93756e-011 -7.55542e-012
2573
root  -29.236 37.918 -16.5437 5.63989 -9.75323 -6.16302
RightUpLeg  7.79559 -9.57838 -5.00415
RightLeg  18.0652 2.02836 0.875943
RightFoot  -18.8335 0.947685 16.335
RightToes  5.38607e-012 1.2921e-014 -6.02303e-014
Spine  0.180094 1.01878 10.6146
Spine1  7.79366 1.63375 -3.71241
HEad  21.6715 34.0342 -2.83139
LeftShoulder1  0.948379 -0.246706 -20.5135
LeftArm  -7.47554 10.9228 -49.6062
LeftForeArm  34.8494 7.57065 -11.2517
LeftHand  -0.0325186 5.05088 2.63108
RightShoulder  1.85386 3.70511 20.1056
RightArm  -21.9683 20.0584 40.107
RightForeArm  56.9806 -6.0005 4.91412
RightHand  -2.08795e-005 -5.46356 -18.5484
LeftUpLeg  -31.0068 -1.81955 -0.756741
LeftLeg  2.06364 20.2336 1.94865
LeftFoot  -4.0717 -0.219454 3.84021
LeftToes  -4.79707e-012 -5.93756e-011 -7.55542e-012
